<?xml version="1.0" standalone="no"?>
<!DOCTYPE svg PUBLIC "-//W3C//DTD SVG 20010904//EN"
 "http://www.w3.org/TR/2001/REC-SVG-20010904/DTD/svg10.dtd">
<svg version="1.0" xmlns="http://www.w3.org/2000/svg"
 width="1200.000000pt" height="1200.000000pt" viewBox="0 0 1200.000000 1200.000000"
 preserveAspectRatio="xMidYMid meet">

<g transform="translate(0.000000,1200.000000) scale(0.100000,-0.100000)"
fill="#000000" stroke="none">
<path d="M5665 10940 c-1104 -81 -2116 -505 -2940 -1231 -138 -122 -404 -393
-514 -524 -646 -774 -1027 -1677 -1138 -2695 -25 -232 -25 -748 0 -980 124
-1142 595 -2152 1377 -2954 525 -538 1115 -927 1797 -1185 1723 -651 3656
-296 5033 925 1374 1218 1961 3086 1530 4869 -237 983 -772 1868 -1535 2544
-776 687 -1728 1104 -2775 1216 -172 19 -664 27 -835 15z m635 -300 c1474
-103 2773 -858 3585 -2085 853 -1289 1003 -2953 394 -4378 -733 -1714 -2417
-2827 -4279 -2827 -1212 0 -2371 471 -3239 1315 -675 656 -1130 1487 -1316
2400 -308 1515 146 3071 1220 4174 411 422 859 739 1391 985 693 320 1490 468
2244 416z"/>
<path d="M5926 10176 c-98 -59 -99 -194 -1 -251 51 -30 93 -32 146 -4 44 22
78 80 79 133 0 69 -79 146 -151 146 -19 0 -52 -11 -73 -24z"/>
<path d="M5131 10098 c-123 -84 -68 -273 79 -273 141 0 202 185 87 267 -46 33
-123 36 -166 6z"/>
<path d="M6710 10098 c-122 -84 -66 -273 80 -273 55 0 91 21 128 75 61 91 -14
220 -128 220 -32 0 -57 -7 -80 -22z"/>
<path d="M4384 9876 c-74 -33 -106 -149 -58 -212 52 -70 117 -89 187 -55 101
49 116 187 27 251 -40 28 -113 36 -156 16z"/>
<path d="M7480 9871 c-75 -40 -101 -126 -59 -200 75 -135 274 -82 274 72 0
115 -114 183 -215 128z"/>
<path d="M3700 9509 c-85 -35 -122 -130 -82 -209 49 -97 189 -108 253 -19 32
45 33 125 3 165 -45 61 -117 87 -174 63z"/>
<path d="M8195 9506 c-65 -29 -106 -109 -90 -173 33 -135 220 -153 280 -27 55
116 -74 253 -190 200z"/>
<path d="M3062 8990 c-127 -77 -74 -273 73 -273 116 0 187 127 127 226 -40 64
-135 87 -200 47z"/>
<path d="M8793 8994 c-70 -35 -98 -135 -57 -205 57 -98 211 -95 258 5 62 131
-71 264 -201 200z"/>
<path d="M2560 8378 c-53 -37 -73 -71 -74 -127 -2 -84 61 -146 147 -146 89 0
147 61 147 153 0 107 -133 179 -220 120z"/>
<path d="M9300 8382 c-97 -49 -108 -189 -19 -253 45 -32 125 -33 165 -3 51 37
69 71 68 125 -1 111 -115 181 -214 131z"/>
<path d="M2192 7684 c-52 -27 -77 -70 -77 -134 0 -89 59 -150 146 -150 81 0
158 89 145 168 -15 98 -129 159 -214 116z"/>
<path d="M9673 7679 c-44 -21 -83 -82 -83 -127 0 -64 62 -136 126 -148 89 -17
164 44 172 139 5 62 -22 109 -78 138 -45 25 -85 24 -137 -2z"/>
<path d="M4586 7315 c-472 -77 -805 -389 -926 -868 -42 -167 -54 -291 -47
-517 6 -213 24 -321 78 -484 171 -513 598 -795 1169 -773 233 10 421 61 592
163 97 58 254 208 318 303 135 202 211 446 229 733 29 495 -102 899 -377 1159
-142 135 -311 222 -521 270 -117 27 -391 34 -515 14z m409 -410 c262 -68 446
-287 518 -615 30 -137 30 -443 0 -580 -44 -201 -126 -356 -248 -468 -261 -239
-711 -224 -953 32 -147 155 -226 376 -239 661 -12 285 41 507 163 692 108 163
268 264 469 297 54 8 229 -3 290 -19z"/>
<path d="M7216 7320 c-318 -50 -558 -203 -666 -424 -59 -120 -74 -189 -74
-336 0 -205 47 -332 169 -456 132 -134 270 -194 635 -279 370 -85 490 -129
570 -208 66 -64 85 -109 85 -202 0 -64 -5 -90 -23 -128 -72 -145 -261 -237
-487 -236 -297 0 -511 124 -564 327 l-12 42 -221 0 -221 0 7 -62 c22 -188 129
-374 280 -485 197 -146 447 -211 761 -200 331 12 555 95 731 271 68 67 89 97
127 176 58 121 77 209 77 353 0 246 -82 410 -268 536 -125 85 -244 127 -597
210 -137 33 -272 67 -298 76 -152 52 -232 108 -272 190 -24 49 -27 64 -23 129
8 126 70 217 188 276 84 42 168 60 290 60 163 0 256 -28 366 -110 60 -45 106
-114 129 -192 l16 -58 216 0 216 0 -6 60 c-20 183 -132 371 -295 492 -78 58
-224 125 -337 154 -84 22 -127 27 -270 29 -93 2 -196 0 -229 -5z"/>
<path d="M1960 6921 c-47 -25 -71 -60 -77 -113 -11 -93 52 -163 144 -163 112
0 182 108 134 208 -37 77 -127 108 -201 68z"/>
<path d="M9897 6918 c-48 -29 -82 -94 -73 -146 15 -98 123 -158 210 -117 79
38 111 145 64 215 -46 68 -131 88 -201 48z"/>
<path d="M1879 6128 c-43 -24 -79 -83 -79 -128 0 -46 36 -104 80 -129 45 -25
76 -26 130 -5 48 19 90 82 90 134 0 52 -42 115 -90 134 -54 21 -87 20 -131 -6z"/>
<path d="M9985 6131 c-46 -21 -85 -81 -85 -131 0 -52 42 -115 90 -134 54 -21
85 -20 130 5 44 25 80 83 80 129 0 71 -77 150 -146 150 -16 0 -47 -9 -69 -19z"/>
<path d="M1962 5344 c-75 -39 -106 -147 -60 -213 28 -41 81 -71 126 -71 84 0
161 88 148 168 -15 98 -129 159 -214 116z"/>
<path d="M9920 5349 c-95 -39 -127 -154 -63 -229 51 -61 118 -76 183 -41 130
69 92 265 -53 277 -23 2 -53 -1 -67 -7z"/>
<path d="M2191 4582 c-48 -24 -73 -62 -78 -119 -11 -120 102 -196 211 -144 33
17 50 33 65 65 26 53 26 79 0 133 -36 74 -124 103 -198 65z"/>
<path d="M9685 4591 c-59 -25 -102 -105 -91 -166 13 -65 85 -125 152 -125 72
0 144 72 144 145 0 49 -26 102 -62 128 -29 22 -111 32 -143 18z"/>
<path d="M2560 3878 c-54 -37 -74 -72 -74 -128 0 -146 190 -203 271 -81 16 23
23 49 23 81 0 115 -129 190 -220 128z"/>
<path d="M9302 3883 c-92 -45 -110 -169 -36 -240 118 -111 305 25 235 170 -37
76 -125 107 -199 70z"/>
<path d="M3099 3281 c-127 -39 -149 -203 -37 -271 95 -58 221 13 221 125 0 96
-97 172 -184 146z"/>
<path d="M8815 3275 c-158 -56 -116 -285 52 -285 75 0 143 68 143 143 0 106
-97 177 -195 142z"/>
<path d="M3669 2757 c-122 -81 -65 -271 81 -271 146 0 203 190 81 271 -23 16
-49 23 -81 23 -32 0 -58 -7 -81 -23z"/>
<path d="M8169 2757 c-122 -81 -65 -271 81 -271 146 0 203 190 81 271 -23 16
-49 23 -81 23 -32 0 -58 -7 -81 -23z"/>
<path d="M4395 2396 c-56 -25 -95 -85 -95 -144 0 -40 40 -102 80 -124 45 -25
115 -20 160 12 88 63 74 202 -25 250 -48 23 -78 25 -120 6z"/>
<path d="M7483 2390 c-46 -23 -83 -84 -83 -133 0 -141 190 -199 273 -83 30 42
31 123 1 162 -52 70 -121 89 -191 54z"/>
<path d="M5155 2166 c-64 -28 -106 -109 -90 -173 39 -159 270 -146 292 17 8
59 -27 123 -81 149 -49 24 -78 26 -121 7z"/>
<path d="M6735 2166 c-112 -51 -126 -194 -26 -262 41 -27 94 -31 145 -10 75
31 109 140 64 205 -47 69 -121 96 -183 67z"/>
<path d="M5924 2075 c-44 -26 -74 -80 -74 -131 0 -67 80 -144 150 -144 71 0
150 77 150 146 -1 53 -35 111 -79 133 -53 28 -97 26 -147 -4z"/>
</g>
</svg>
