<?xml version="1.0" standalone="no"?>
<!DOCTYPE svg PUBLIC "-//W3C//DTD SVG 20010904//EN"
 "http://www.w3.org/TR/2001/REC-SVG-20010904/DTD/svg10.dtd">
<svg version="1.0" xmlns="http://www.w3.org/2000/svg"
 width="800.000000pt" height="800.000000pt" viewBox="0 0 800.000000 800.000000"
 preserveAspectRatio="xMidYMid meet">

<g transform="translate(0.000000,800.000000) scale(0.100000,-0.100000)"
fill="#000000" stroke="none">
<path d="M0 4566 c0 -1938 3 -2435 12 -2439 10 -4 10 -6 1 -6 -7 -1 -13 -5
-13 -10 0 -18 96 -5 126 16 29 21 34 23 54 23 6 0 10 5 10 10 0 6 -11 10 -25
10 -32 0 -32 20 -1 49 23 21 30 23 83 15 32 -4 61 -8 65 -8 3 -1 10 -4 14 -9
4 -4 20 -7 36 -7 18 0 28 -5 28 -15 0 -8 -6 -16 -12 -16 -7 -1 -20 -2 -28 -3
-8 0 -15 -8 -15 -16 0 -10 11 -15 38 -16 20 -1 37 3 37 7 0 5 -5 9 -11 9 -5 0
-8 4 -4 10 8 12 54 -6 78 -31 18 -19 37 -25 37 -11 0 4 -14 19 -31 32 -17 14
-38 33 -47 43 -9 9 -22 17 -29 17 -12 0 -18 20 -14 44 1 4 -6 14 -16 22 -17
13 -17 13 2 14 17 0 17 2 5 10 -13 8 -12 10 5 11 11 1 25 2 30 4 6 1 20 3 33
3 13 1 22 9 22 18 0 8 5 12 10 9 6 -3 10 -2 10 2 0 13 59 45 70 38 6 -4 2 9
-9 27 -11 19 -25 31 -32 29 -8 -3 -40 -7 -72 -9 l-58 -4 7 41 c5 34 4 41 -10
41 -15 0 -15 2 1 27 10 16 21 31 26 34 4 3 7 12 5 19 -2 9 9 16 26 19 17 3 29
9 28 14 -4 15 -1 16 33 1 37 -15 117 -18 150 -5 12 5 -7 7 -50 6 -39 -1 -47 0
-17 2 41 3 52 8 52 21 0 15 2 15 10 2 9 -13 12 -13 24 3 7 9 17 17 21 17 4 0
2 -7 -5 -15 -21 -25 3 -41 25 -18 23 23 129 28 305 15 70 -5 135 -6 148 -1 14
6 30 4 42 -3 15 -10 27 -10 50 -1 16 6 30 7 30 2 0 -5 10 -9 21 -9 19 0 20 2
8 17 -13 15 -12 16 11 9 14 -4 37 -10 53 -13 15 -3 27 -9 27 -13 0 -5 9 -12
20 -15 14 -5 26 0 38 15 15 18 19 19 35 7 14 -10 36 -11 90 -5 40 4 79 5 87 2
8 -4 44 -9 80 -11 65 -5 87 -5 158 -3 20 0 63 -1 95 -3 32 -2 60 -1 62 3 5 9
65 -3 86 -16 8 -5 21 -7 31 -6 9 2 20 -3 24 -9 5 -9 2 -10 -10 -6 -9 4 -15 3
-12 -2 7 -11 -42 -61 -59 -61 -7 0 -19 -10 -28 -23 -15 -22 -16 -22 -47 -4
-43 23 -78 21 -125 -8 -22 -13 -51 -30 -65 -36 -101 -49 -153 -68 -196 -74
-27 -4 -89 -21 -139 -38 -51 -17 -113 -31 -143 -32 -29 0 -56 -6 -60 -11 -4
-6 -32 -13 -62 -17 -85 -8 -206 -71 -293 -151 -17 -16 -43 -33 -58 -38 -30
-10 -59 -68 -59 -116 0 -28 -39 -62 -87 -77 -13 -3 -23 -11 -23 -16 0 -5 -8
-9 -17 -9 -10 0 -36 -16 -57 -35 -22 -19 -43 -35 -47 -35 -4 0 -18 -9 -31 -19
-97 -81 -89 -78 -173 -85 -101 -8 -191 -36 -267 -83 -33 -20 -73 -38 -90 -39
-16 -1 -38 -10 -49 -20 -18 -16 -19 -33 -19 -296 l0 -278 2949 0 2949 0 7 103
c4 62 2 116 -4 137 -6 19 -11 93 -11 165 0 79 -6 158 -15 200 -45 205 -55 261
-55 295 0 34 -14 82 -64 218 -21 56 -104 165 -153 201 -21 15 -47 38 -57 50
-11 11 -25 21 -33 21 -7 0 -13 4 -13 8 0 5 -23 31 -50 58 -28 27 -53 57 -56
67 -3 9 -10 17 -15 17 -5 0 -31 15 -58 33 -47 31 -49 34 -54 87 -11 116 -14
235 -7 261 5 15 5 30 2 34 -4 4 -7 127 -7 273 l0 267 -40 2 c-188 11 -225 16
-225 30 0 34 -18 -2 -29 -56 -19 -94 -108 -258 -190 -349 -12 -12 -21 -26 -21
-31 0 -4 -15 -21 -33 -38 -32 -29 -34 -36 -51 -153 -21 -150 -50 -307 -77
-420 -24 -102 -33 -203 -20 -227 34 -66 37 -403 6 -568 -29 -148 -43 -272 -60
-535 -2 -25 -8 -56 -13 -70 -10 -25 -10 -25 -27 15 -41 94 -86 195 -119 266
-20 42 -36 81 -36 86 0 6 -21 55 -46 109 -26 55 -60 128 -76 164 -16 36 -37
79 -45 95 -9 17 -24 45 -34 64 -29 55 -53 74 -144 116 l-87 40 8 65 c20 156 6
264 -39 310 -32 33 -85 65 -94 56 -3 -2 -27 17 -55 44 -42 41 -48 52 -39 67
10 17 10 16 11 -4 0 -25 19 -30 52 -12 11 6 23 7 27 2 9 -12 134 -16 126 -3
-9 14 11 12 27 -2 7 -7 20 -15 28 -17 24 -6 83 -19 113 -26 15 -3 25 -9 23
-14 -3 -5 1 -14 8 -21 11 -8 20 -9 36 0 16 9 25 8 36 -1 11 -9 14 -8 14 5 0 9
-7 19 -15 22 -20 8 -54 82 -48 105 5 18 17 22 100 34 24 4 45 10 48 15 3 4 29
14 57 21 50 11 118 54 118 73 0 12 -66 -2 -103 -23 -18 -10 -39 -18 -47 -19
-29 -3 -55 -9 -74 -17 -13 -6 -23 -3 -32 10 -11 15 -18 16 -36 9 -21 -10 -51
-10 -88 -1 -57 14 -79 21 -107 33 -18 8 -35 18 -38 23 -3 5 -14 7 -25 4 -14
-4 -20 0 -20 11 0 10 -4 15 -9 11 -5 -3 -13 -1 -16 5 -5 8 -12 7 -22 -2 -12
-10 -17 -9 -28 5 -7 9 -17 17 -23 17 -6 0 -16 8 -21 18 -6 9 -11 13 -11 9 0
-12 -45 44 -53 66 -4 9 -15 20 -24 24 -10 4 -26 17 -36 30 -10 13 -22 21 -26
19 -4 -3 -26 25 -50 60 -24 36 -52 69 -62 75 -11 5 -19 18 -19 28 0 19 -29 51
-47 51 -6 0 -14 11 -17 24 -4 15 -15 26 -29 28 -12 2 -21 9 -19 16 1 7 -6 25
-17 40 -25 35 -43 103 -46 175 -2 52 7 75 18 45 9 -25 19 2 20 51 0 27 -5 56
-12 65 -7 9 -11 23 -7 31 3 8 1 15 -5 15 -6 0 -17 7 -25 15 -8 8 -23 19 -32
24 -14 8 -15 12 -4 22 6 7 12 26 12 41 0 23 -4 28 -25 28 -14 0 -25 -5 -25
-10 0 -7 -6 -7 -17 -1 -46 25 -53 37 -58 96 -9 95 -16 125 -31 125 -8 0 -14 3
-15 8 -10 76 -7 138 8 154 10 12 18 42 21 78 3 45 8 57 18 53 8 -3 14 0 14 6
0 6 9 11 20 11 11 0 20 -4 20 -9 0 -5 9 -12 19 -16 11 -3 22 -19 26 -35 5 -21
13 -30 26 -30 10 0 19 -3 19 -8 0 -12 170 -14 275 -1 55 6 125 13 155 15 30 2
56 3 58 4 2 0 -4 7 -13 16 -15 15 -23 15 -108 -5 -99 -23 -167 -27 -167 -11 0
6 -12 10 -26 10 -19 0 -25 4 -22 18 3 13 12 16 36 14 18 -2 40 2 48 9 18 14
203 17 225 3 8 -4 22 -7 32 -6 14 3 17 -1 12 -21 -9 -33 2 -38 77 -30 62 5 64
6 75 40 13 41 9 141 -7 157 -5 5 -10 16 -10 23 0 17 -41 75 -75 107 -21 20
-39 26 -74 26 -25 1 -73 8 -106 16 -78 21 -118 24 -180 14 -32 -5 -52 -4 -56
3 -11 16 -132 2 -164 -19 -20 -13 -30 -15 -32 -7 -3 7 -11 9 -20 6 -11 -4 -14
-2 -9 5 4 7 16 12 27 12 10 0 19 5 19 10 0 14 -52 1 -66 -16 -10 -12 -13 -12
-24 1 -7 8 -9 15 -5 15 4 0 2 7 -5 15 -10 12 -9 19 2 37 21 32 27 64 34 165 6
88 30 156 63 177 23 14 80 79 86 97 3 8 20 23 38 32 17 10 56 30 85 46 30 16
71 32 92 36 26 4 37 11 34 19 -7 17 64 46 111 46 28 0 33 3 28 17 -6 16 -5 16
17 0 14 -9 34 -17 46 -17 12 0 24 -7 28 -15 3 -8 12 -12 21 -9 25 10 68 -5 61
-21 -4 -11 2 -15 19 -15 13 0 36 -5 51 -10 30 -12 46 -4 24 11 -11 8 -10 9 8
4 12 -4 22 -2 22 4 0 6 13 8 33 4 29 -6 31 -5 18 11 -13 16 -12 17 13 10 19
-5 31 -2 37 7 6 10 9 11 9 2 0 -7 5 -13 10 -13 6 0 10 7 10 16 0 8 4 13 9 9 5
-3 15 0 23 7 7 7 24 12 38 11 14 -1 65 -4 113 -7 89 -6 131 -21 170 -57 12
-10 26 -19 33 -19 6 0 17 -7 24 -15 6 -8 37 -31 67 -51 30 -20 57 -43 60 -51
9 -23 75 -93 88 -93 22 0 51 -46 68 -110 10 -36 24 -78 31 -95 7 -16 20 -55
30 -85 10 -30 24 -70 33 -89 8 -18 21 -90 29 -160 16 -147 23 -181 35 -181 5
0 9 11 9 25 0 17 6 25 18 26 27 2 46 -2 56 -12 14 -13 7 -172 -11 -254 -49
-221 -91 -579 -64 -536 11 17 39 23 47 10 3 -5 16 -9 29 -9 22 0 23 3 15 24
-8 21 -6 25 13 28 17 2 22 9 21 31 -1 24 2 27 28 27 28 0 30 2 22 28 -8 26
-11 430 -4 612 1 47 3 171 3 275 0 105 1 285 2 400 1 116 3 344 4 507 2 164 6
300 11 303 4 3 6 13 3 24 -2 10 2 38 10 63 10 29 15 83 15 162 0 70 5 122 11
130 8 10 8 22 1 41 -10 28 -7 151 4 162 10 11 6 41 -6 45 -9 3 -9 21 1 76 12
68 20 136 23 194 1 22 5 25 22 18 12 -4 27 -5 33 -3 7 3 13 -2 13 -11 0 -9 4
-16 9 -16 11 0 17 59 20 198 l2 112 -1815 0 -1815 0 1 -32 c0 -18 5 -76 9
-128 5 -52 13 -234 19 -405 6 -170 13 -368 17 -439 5 -97 3 -127 -5 -122 -14
9 -17 -91 -3 -113 10 -16 150 -16 551 -1 697 27 1090 34 1090 21 0 -6 -17 -21
-37 -35 -21 -13 -47 -33 -57 -45 -11 -11 -23 -21 -28 -21 -19 0 -168 -146
-168 -164 0 -14 -68 -105 -74 -99 -3 4 -6 1 -6 -7 0 -9 -3 -10 -13 -1 -8 6
-17 7 -23 2 -5 -5 -272 -12 -594 -15 l-584 -7 2 -127 c3 -135 14 -350 37 -732
8 -129 20 -347 27 -483 l11 -248 44 -46 43 -46 76 7 c58 5 75 4 72 -5 -4 -13
-8 -15 -68 -41 -19 -9 -53 -24 -74 -33 -62 -28 -144 -43 -231 -45 -86 -1 -527
18 -532 24 -6 6 127 46 152 46 14 0 25 4 25 8 0 5 11 15 25 22 14 7 25 18 24
24 -3 25 2 34 22 39 18 5 20 11 14 49 -11 83 -23 349 -24 565 -1 120 -8 277
-16 348 -15 140 -23 255 -30 430 -2 61 -7 141 -11 178 l-7 69 -151 -6 c-462
-18 -520 -18 -541 -3 -19 15 -19 15 5 36 21 17 22 20 7 21 -20 0 -39 42 -31
65 4 8 0 25 -8 38 -27 41 -29 67 -5 77 17 6 18 9 7 13 -8 2 -32 10 -53 16 -27
9 -42 10 -51 2 -15 -13 -73 6 -81 26 -3 10 6 13 33 12 20 0 82 4 137 10 55 6
239 14 410 16 l310 5 -1 70 c-2 80 -20 412 -35 640 -12 192 -15 248 -25 428
l-7 142 -658 0 -659 0 0 -2434z m4149 2221 c10 3 35 -6 55 -19 29 -18 36 -29
35 -53 l-1 -30 -11 27 c-9 23 -15 26 -41 21 -17 -3 -32 -10 -34 -15 -2 -4 -12
-8 -23 -8 -27 0 -46 -44 -29 -65 7 -8 10 -18 7 -22 -8 -8 -38 17 -32 26 2 4 6
30 9 58 6 63 26 110 38 89 4 -8 16 -12 27 -9z m691 2 c0 -7 10 -21 23 -33 24
-23 35 -66 17 -66 -7 0 -10 6 -7 14 3 8 -1 20 -9 27 -21 18 -47 69 -34 69 5 0
10 -5 10 -11z m70 -25 c-18 -21 -24 -10 -8 15 7 12 14 17 16 11 2 -6 -2 -17
-8 -26z m-1090 5 c0 -11 -4 -17 -10 -14 -5 3 -10 13 -10 21 0 8 5 14 10 14 6
0 10 -9 10 -21z m-125 -29 c3 -5 1 -10 -4 -10 -6 0 -11 5 -11 10 0 6 2 10 4
10 3 0 8 -4 11 -10z m545 -74 c0 -27 -12 -46 -30 -46 -17 0 -17 2 -4 30 16 32
34 40 34 16z m-457 -326 c-7 -28 -13 -25 -13 6 0 14 4 23 9 20 5 -3 7 -15 4
-26z m614 -446 c-3 -3 -12 -4 -19 -1 -8 3 -5 6 6 6 11 1 17 -2 13 -5z m80 0
c-3 -3 -12 -4 -19 -1 -8 3 -5 6 6 6 11 1 17 -2 13 -5z m-837 -34 c-20 -13 -33
-13 -25 0 3 6 14 10 23 10 15 0 15 -2 2 -10z m1508 -47 c4 -29 -29 -43 -123
-53 l-70 -7 71 -2 c80 -1 121 -22 109 -54 -4 -9 -13 -17 -20 -17 -6 0 -26 -7
-43 -15 -34 -17 -37 -48 -6 -53 35 -7 36 -19 5 -51 -35 -35 -36 -39 -18 -38
49 2 62 -17 31 -47 -23 -24 -220 -23 -246 1 -10 9 -18 23 -18 32 0 9 -16 29
-35 44 -19 15 -35 34 -35 42 0 9 -9 15 -21 15 -13 0 -19 5 -16 13 3 7 -4 19
-14 25 -10 7 -19 19 -19 27 0 8 -4 15 -10 15 -5 0 -25 14 -43 30 -19 17 -45
30 -58 30 -13 0 -55 16 -94 35 l-70 34 110 1 c214 3 419 10 424 15 3 3 50 4
105 3 96 -3 101 -4 104 -25z m-4740 -131 c10 -7 8 -12 -6 -25 -21 -19 -71 -17
-117 4 l-29 14 54 6 c30 3 62 6 70 7 8 1 21 -2 28 -6z m4273 -44 c9 -17 8 -18
-9 -9 -11 6 -22 17 -25 25 -9 22 21 8 34 -16z m-2375 -285 c7 -10 14 -41 14
-70 l0 -51 41 5 c38 5 41 4 35 -14 -5 -16 -1 -22 20 -26 16 -3 27 0 31 9 8 22
31 -1 31 -31 0 -16 -6 -25 -17 -26 -11 0 -12 -2 -3 -6 9 -4 10 -8 2 -18 -15
-17 -1 -24 33 -18 24 5 28 10 24 29 -3 19 1 24 25 29 16 4 32 13 35 21 3 8 19
14 39 14 l35 0 -35 -35 c-20 -19 -42 -35 -51 -35 -8 0 -15 -4 -15 -8 0 -5 -10
-20 -21 -33 -12 -13 -28 -34 -36 -46 -9 -13 -22 -23 -29 -23 -21 0 -18 -47 4
-52 31 -8 42 3 42 43 0 37 12 51 25 29 3 -5 9 -10 13 -10 16 0 125 114 126
131 1 11 4 19 9 19 4 0 13 0 21 0 8 0 22 -7 30 -16 9 -8 16 -13 16 -10 0 27
17 46 41 46 15 0 19 10 21 63 l3 62 39 1 c25 0 41 6 48 17 10 18 38 23 38 7 0
-5 5 -10 10 -10 6 0 10 8 10 17 0 16 1 16 16 1 15 -15 15 -19 -7 -50 -14 -19
-25 -50 -26 -73 -4 -76 -8 -90 -30 -113 -26 -26 -29 -54 -9 -74 15 -15 27
-126 15 -134 -16 -9 5 -194 26 -240 10 -22 15 -71 16 -165 1 -227 2 -219 -23
-220 l-23 0 23 -9 c26 -11 27 -16 6 -37 -13 -13 -20 -14 -35 -5 -59 37 -71
-16 -38 -178 14 -69 19 -77 35 -56 7 10 15 13 18 7 3 -5 0 -16 -8 -24 -13 -12
-13 -18 0 -43 19 -37 28 -45 20 -18 -4 13 -1 26 9 34 13 11 15 8 15 -23 0 -19
7 -40 15 -47 8 -7 15 -19 15 -26 0 -8 11 -16 25 -20 14 -3 25 -13 25 -21 0
-11 -8 -13 -32 -8 -44 9 -66 39 -58 80 1 6 -4 5 -10 -1 -14 -14 40 -152 69
-178 20 -18 32 -12 25 12 -5 14 -4 15 4 2 15 -23 25 -110 13 -110 -5 0 -12 17
-14 38 l-4 37 -1 -41 c-2 -30 4 -49 21 -70 23 -29 56 -123 57 -159 0 -11 18
-56 40 -99 45 -89 49 -124 20 -151 -11 -10 -22 -26 -25 -36 -6 -17 -65 -57
-65 -44 0 3 -10 0 -22 -7 -13 -6 -33 -11 -45 -9 -30 3 -59 -26 -55 -56 3 -22
1 -23 -57 -23 -33 0 -63 5 -66 10 -3 6 2 10 12 10 10 0 25 5 33 10 12 7 12 12
2 22 -9 9 -15 9 -24 0 -18 -18 -38 -15 -38 6 0 11 -8 18 -21 19 -12 1 -26 6
-31 11 -6 6 -24 6 -46 0 -73 -20 -109 -20 -135 -3 -15 9 -40 17 -58 18 -35 2
-61 29 -43 47 6 6 34 11 63 13 30 1 53 5 52 10 0 4 -1 12 -1 18 0 8 -16 10
-50 5 -44 -6 -50 -5 -50 12 0 10 -5 23 -12 30 -9 9 -8 12 5 12 16 0 25 19 10
21 -5 0 -16 2 -25 4 -10 2 -18 -3 -18 -11 0 -8 -9 -14 -20 -14 -14 0 -20 7
-20 23 0 32 15 51 35 43 11 -4 18 0 22 13 4 15 14 18 64 18 33 0 62 3 65 6 4
3 0 27 -7 52 -11 37 -18 45 -34 43 -28 -4 -33 -44 -6 -53 24 -7 27 -20 7 -28
-8 -3 -24 5 -36 18 -22 23 -30 25 -93 16 -5 0 -7 -9 -6 -18 3 -38 -2 -53 -18
-53 -9 0 -24 -7 -34 -16 -25 -23 -46 -12 -54 28 -11 50 -48 117 -53 96 -2 -10
6 -31 18 -48 25 -36 40 -130 20 -130 -8 0 -22 7 -32 16 -12 11 -22 14 -30 7
-12 -8 -19 -9 -45 -4 -4 0 1 7 11 14 18 13 18 14 0 32 -13 13 -15 20 -6 23 21
7 13 33 -19 63 -29 27 -30 31 -17 47 25 28 30 58 13 75 -8 9 -15 28 -14 44 0
27 1 27 11 6 6 -13 15 -23 20 -23 5 0 6 -9 3 -21 -6 -18 -4 -20 17 -14 12 4
26 12 29 17 9 14 69 6 69 -10 0 -7 -4 -11 -9 -7 -17 10 -21 -11 -6 -31 8 -10
15 -29 15 -42 0 -13 4 -20 10 -17 6 3 10 19 10 34 0 18 6 31 18 35 9 4 30 14
46 23 28 15 29 16 11 29 -14 10 -16 17 -8 25 8 8 6 19 -4 40 -8 17 -13 33 -10
35 3 3 13 -10 22 -30 10 -20 21 -33 26 -30 14 8 11 32 -7 59 -13 20 -22 23
-55 20 -29 -3 -41 0 -48 13 -9 15 -10 15 -11 1 0 -13 -11 -17 -52 -17 -29 0
-61 5 -71 10 -18 9 -18 10 -1 23 17 12 16 13 -4 19 -12 4 -22 14 -22 22 0 8
-4 13 -9 9 -6 -3 -8 4 -6 15 5 26 -21 27 -28 0 -3 -12 -14 -20 -26 -20 -14 0
-21 6 -21 20 0 11 -5 20 -11 20 -6 0 -8 9 -4 20 8 26 -4 47 -17 29 -8 -11 -9
-10 -4 3 3 10 0 20 -5 24 -8 4 -7 10 0 17 13 13 -14 47 -37 47 -12 0 -12 -3
-2 -15 10 -13 10 -19 -4 -33 -9 -10 -16 -35 -16 -55 0 -51 -13 -46 -29 10 -13
41 -12 47 3 58 15 11 14 13 -10 19 -20 5 -23 10 -14 21 8 10 8 15 -1 20 -8 6
-8 10 2 16 11 6 11 14 2 38 -11 31 1 81 20 81 7 0 8 -8 11 -82 0 -25 4 -49 8
-53 10 -10 28 4 28 21 0 16 26 19 35 4 3 -5 13 -10 21 -10 11 0 15 9 13 33 -1
17 3 45 10 60 6 16 11 33 11 38 0 5 8 4 19 -2 22 -15 51 -5 51 16 0 14 -23 21
-60 17 -8 -1 -40 -3 -70 -5 -30 -2 -60 -6 -67 -10 -17 -10 -45 3 -39 19 3 8 2
14 -3 14 -4 0 -8 15 -7 33 1 25 6 33 23 35 12 2 27 10 33 18 20 23 59 16 93
-16 l32 -30 7 32 c3 18 5 35 2 39 -2 4 -4 29 -5 55 0 27 -5 62 -11 77 -9 24
-15 27 -39 22 -18 -4 -29 -2 -29 4 0 6 5 11 10 11 10 0 7 41 -5 60 -3 5 -1 10
5 10 7 0 9 8 5 20 -5 17 -2 20 23 20 34 0 47 19 51 73 1 15 4 15 21 5 30 -19
46 3 22 32 -19 24 -76 37 -87 20 -3 -6 -18 -10 -33 -10 -21 0 -24 -2 -12 -10
13 -8 13 -10 -2 -10 -9 0 -19 -6 -22 -12 -3 -7 -3 1 1 17 3 17 10 35 15 41 12
16 127 94 137 94 16 0 18 52 3 82 -12 24 -12 35 -3 49 17 28 13 47 -9 54 -11
4 -20 15 -20 26 0 18 2 19 30 4 39 -20 49 -19 42 7 -4 17 -2 20 11 15 11 -4
17 -1 17 7 0 16 49 31 60 19 5 -4 10 -16 12 -26 4 -24 22 -23 26 2 2 13 12 21
30 23 20 2 28 11 34 36 5 18 13 30 18 27 5 -3 12 7 16 22 4 15 12 34 18 42 8
10 6 12 -9 9 -11 -2 -19 -9 -18 -15 1 -6 -5 -10 -15 -9 -9 0 -16 -5 -14 -12 4
-22 -31 -72 -50 -72 -10 0 -18 7 -18 15 0 9 -9 15 -25 15 -14 0 -28 6 -30 13
-21 59 -27 69 -35 61 -5 -5 -4 -26 3 -51 6 -23 8 -45 5 -48 -3 -4 -39 -7 -79
-8 -63 -2 -74 1 -77 15 -2 12 5 21 21 27 33 13 37 22 46 86 6 43 5 52 -5 44
-8 -7 -14 -7 -19 1 -8 13 3 32 15 25 5 -3 11 -1 15 5 3 5 -14 15 -40 21 -26 7
-45 17 -45 25 0 14 31 19 43 7 4 -3 26 -7 50 -7 36 -1 42 -4 45 -23 2 -13 9
-23 17 -23 16 0 26 25 19 45 -4 10 0 15 14 15 21 0 46 23 35 33 -3 4 -3 7 2 7
4 0 14 -8 21 -17z m393 -28 c6 3 19 1 30 -5 26 -13 27 -93 1 -88 -10 2 -14 14
-13 36 1 19 -3 32 -10 32 -8 0 -12 -14 -11 -35 2 -37 -10 -55 -20 -30 -3 8
-12 15 -21 15 -9 0 -20 10 -24 23 -11 29 25 73 45 56 7 -6 18 -8 23 -4z m-162
-39 c0 -17 -34 -39 -42 -27 -3 5 -2 16 1 25 7 20 41 21 41 2z m-582 -55 c-3
-6 -14 -11 -23 -11 -15 1 -15 2 2 15 21 16 32 13 21 -4z m137 -43 c-7 -7 -12
-8 -12 -2 0 14 12 26 19 19 2 -3 -1 -11 -7 -17z m433 1 c10 -15 -1 -23 -20
-15 -9 3 -13 10 -10 16 8 13 22 13 30 -1z m-490 -39 c12 -20 -5 -48 -25 -43
-25 7 -44 29 -35 43 8 13 52 13 60 0z m-2 -80 c3 -11 15 -24 28 -28 19 -7 20
-10 6 -15 -26 -10 -21 -56 9 -83 21 -21 22 -24 7 -25 -11 0 -13 -3 -5 -6 15
-6 6 -23 -14 -23 -8 0 -14 7 -14 16 0 12 -7 15 -25 12 -34 -7 -56 21 -62 77
-6 45 -6 45 26 45 21 0 31 5 31 15 0 8 -4 15 -10 15 -5 0 -10 5 -10 10 0 19
28 10 33 -10z m82 -110 c8 -13 -5 -13 -25 0 -13 8 -13 10 2 10 9 0 20 -4 23
-10z m-55 -340 c0 -5 -4 -10 -10 -10 -5 0 -10 5 -10 10 0 6 5 10 10 10 6 0 10
-4 10 -10z m1473 -102 c51 -12 94 -24 97 -28 3 -4 11 -9 19 -12 8 -2 15 -12
17 -21 2 -14 -4 -15 -44 -10 -66 10 -174 9 -263 -1 -67 -7 -77 -7 -82 8 -9 24
10 56 33 56 11 0 25 7 32 15 19 21 85 18 191 -7z m-2513 8 c0 -3 -4 -8 -10
-11 -5 -3 -10 -1 -10 4 0 6 5 11 10 11 6 0 10 -2 10 -4z m2619 -145 c16 -10 6
-31 -15 -31 -8 0 -14 9 -14 20 0 22 7 25 29 11z m174 -20 c10 -1 9 -59 -2 -65
-7 -5 -71 56 -71 67 0 2 48 0 73 -2z m-3363 -22 c0 -5 -4 -9 -10 -9 -5 0 -10
7 -10 16 0 8 5 12 10 9 6 -3 10 -10 10 -16z m0 -28 c0 -18 -18 -21 -30 -6 -10
13 -9 15 9 15 11 0 21 -4 21 -9z m1590 -32 c0 -5 -10 -9 -21 -9 -18 0 -19 2
-9 15 12 15 30 12 30 -6z m-1633 -25 c-9 -9 -28 6 -21 18 4 6 10 6 17 -1 6 -6
8 -13 4 -17z m26 -101 c3 -16 9 -36 12 -45 5 -12 2 -18 -7 -18 -15 0 -50 68
-42 82 11 17 32 7 37 -19z m207 16 c-12 -8 -12 -12 -2 -16 10 -4 9 -8 -5 -19
-27 -20 -33 -17 -33 16 0 26 4 30 28 30 22 0 24 -2 12 -11z m-326 -65 c23 -9
22 -67 -1 -62 -10 2 -23 14 -30 28 -7 14 -13 21 -13 17 0 -5 -6 -5 -12 -1 -9
6 -5 10 12 15 14 4 26 7 27 8 1 1 8 -2 17 -5z m1746 -4 c0 -5 -4 -10 -10 -10
-5 0 -10 5 -10 10 0 6 5 10 10 10 6 0 10 -4 10 -10z m-35 -37 c9 -21 15 -46
13 -56 -5 -33 -39 4 -45 51 -7 53 11 56 32 5z m-1585 7 c0 -5 -2 -10 -4 -10
-3 0 -8 5 -11 10 -3 6 -1 10 4 10 6 0 11 -4 11 -10z m2580 -4 c0 -2 -9 -6 -20
-9 -11 -3 -18 -1 -14 4 5 9 34 13 34 5z m-2570 -43 c0 -22 -2 -25 -10 -13 -13
20 -13 40 0 40 6 0 10 -12 10 -27z m-90 -8 c0 -12 -24 -55 -31 -55 -5 0 -5 -8
-2 -17 5 -13 2 -15 -11 -10 -10 4 -22 7 -27 7 -15 0 -10 30 6 36 8 3 17 14 20
25 5 16 45 29 45 14z m580 -5 c0 -5 -4 -10 -10 -10 -5 0 -10 5 -10 10 0 6 5
10 10 10 6 0 10 -4 10 -10z m2020 -10 c0 -5 -5 -10 -11 -10 -5 0 -7 5 -4 10 3
6 8 10 11 10 2 0 4 -4 4 -10z m-2210 -35 c0 -8 -4 -15 -10 -15 -5 0 -7 7 -4
15 4 8 8 15 10 15 2 0 4 -7 4 -15z m-130 -39 c0 -3 -4 -8 -10 -11 -5 -3 -10
-1 -10 4 0 6 5 11 10 11 6 0 10 -2 10 -4z m-238 -48 c-18 -19 -22 -20 -22 -6
0 9 8 21 17 27 27 15 29 3 5 -21z m548 22 c0 -5 -7 -7 -15 -4 -8 4 -15 8 -15
10 0 2 7 4 15 4 8 0 15 -4 15 -10z m-558 -77 c1 -16 2 -37 3 -48 2 -28 -6 -40
-16 -24 -12 19 -11 99 1 99 6 0 11 -12 12 -27z m404 1 c-3 -9 -6 -22 -6 -30 0
-9 -4 -12 -10 -9 -17 10 -12 55 6 55 11 0 14 -5 10 -16z m-52 -39 c-4 -8 -8
-15 -10 -15 -2 0 -4 7 -4 15 0 8 4 15 10 15 5 0 7 -7 4 -15z m-257 -77 c5 -27
7 -29 14 -13 7 19 8 19 8 -1 1 -12 -6 -24 -14 -28 -8 -3 -15 -16 -15 -29 0
-29 -22 -77 -35 -78 -5 0 -17 -2 -26 -4 -30 -5 -10 88 25 116 l21 18 -24 -6
c-19 -5 -23 -3 -18 9 3 9 0 21 -6 28 -7 7 -7 10 -2 7 6 -3 17 -2 25 4 27 16
40 9 47 -23z m310 -5 c-3 -10 -5 -4 -5 12 0 17 2 24 5 18 2 -7 2 -21 0 -30z
m118 13 c0 -15 -5 -22 -12 -19 -7 3 -13 -1 -13 -7 0 -9 -7 -7 -20 5 -31 28
-26 35 35 44 6 0 10 -10 10 -23z m-89 -161 c1 -91 -7 -133 -19 -101 -4 9 -14
16 -22 16 -9 0 -13 5 -10 10 3 6 2 10 -4 10 -5 0 -13 -5 -16 -10 -12 -19 -26
2 -21 32 3 18 -2 40 -10 53 -10 16 -12 25 -5 30 6 3 11 17 11 29 0 21 4 23 48
22 l47 -1 1 -90z m104 75 c0 -5 -5 -10 -11 -10 -5 0 -7 5 -4 10 3 6 8 10 11
10 2 0 4 -4 4 -10z m1425 -10 c3 -5 1 -10 -4 -10 -6 0 -11 5 -11 10 0 6 2 10
4 10 3 0 8 -4 11 -10z m-1814 -83 c-13 -13 -26 -3 -16 12 3 6 11 8 17 5 6 -4
6 -10 -1 -17z m1469 3 c-8 -5 -19 -10 -25 -10 -5 0 -3 5 5 10 8 5 20 10 25 10
6 0 3 -5 -5 -10z m-62 -32 c-3 -7 -18 -15 -34 -19 -16 -3 -39 -11 -50 -17 -12
-6 -24 -8 -28 -4 -7 7 78 50 102 51 8 1 12 -5 10 -11z m-1568 -87 c0 -10 -8
-21 -17 -25 -10 -3 -24 -9 -31 -12 -8 -4 -10 0 -5 13 15 43 53 61 53 24z m409
-1 c14 0 18 -8 17 -30 -1 -16 -6 -30 -13 -30 -19 0 -41 39 -35 63 3 12 7 16
10 9 2 -6 12 -12 21 -12z m1231 -14 c0 -9 -7 -12 -20 -9 -11 3 -17 9 -14 14 8
14 34 10 34 -5z m-109 -36 c-35 -17 -66 -29 -68 -27 -7 7 26 29 64 43 68 24
70 15 4 -16z m193 -39 c4 -5 3 -16 0 -24 -5 -14 -8 -13 -23 1 -10 9 -16 20
-14 25 6 10 31 9 37 -2z m-59 -20 c-2 -5 -17 -11 -32 -14 l-28 -5 24 19 c22
18 47 17 36 0z m-1675 -1 c0 -5 -4 -10 -10 -10 -5 0 -10 5 -10 10 0 6 5 10 10
10 6 0 10 -4 10 -10z m1307 -22 c-3 -7 -5 -2 -5 12 0 14 2 19 5 13 2 -7 2 -19
0 -25z m295 -20 c-15 -15 -16 -98 -1 -98 8 0 8 -5 -1 -15 -7 -8 -18 -15 -25
-15 -7 0 -18 -6 -24 -14 -13 -15 -64 -29 -55 -15 3 5 10 9 16 9 5 0 23 9 39
21 24 17 28 26 26 60 -2 22 -9 44 -17 50 -13 8 -13 10 0 19 8 5 24 10 35 10
15 0 16 -3 7 -12z m448 -8 c0 -5 -7 -10 -16 -10 -8 0 -12 5 -9 10 3 6 10 10
16 10 5 0 9 -4 9 -10z m-303 -17 c2 -6 -3 -13 -12 -16 -10 -5 -15 0 -15 14 0
21 21 22 27 2z m-426 -6 c-1 -4 -3 -7 -6 -7 -40 0 -40 0 -25 10 16 10 32 9 31
-3z m205 -2 c-11 -8 -31 -15 -45 -15 -24 0 -24 1 -5 15 10 8 30 14 44 14 24 0
24 0 6 -14z m141 -61 c-3 -3 -12 -4 -19 -1 -8 3 -5 6 6 6 11 1 17 -2 13 -5z
m-338 -125 c1 -29 5 -58 8 -63 4 -8 2 -8 -5 -1 -13 13 -28 130 -15 122 5 -3
10 -30 12 -58z m351 31 c0 -5 -16 -17 -35 -26 -20 -9 -37 -26 -40 -38 -2 -11
-6 -30 -8 -41 -3 -14 -5 -12 -6 8 -1 17 -7 27 -17 27 -23 0 -8 17 32 36 19 9
39 25 45 36 10 18 29 17 29 -2z m1004 -36 c9 -3 16 -14 15 -23 0 -10 -2 -11
-6 -3 -2 6 -14 12 -24 12 -11 0 -17 5 -14 10 7 12 8 12 29 4z m56 -19 c0 -8
-9 -19 -20 -25 -17 -9 -19 -8 -13 7 6 15 21 32 31 33 1 0 2 -7 2 -15z m-1660
-25 c18 -12 2 -12 -25 0 -13 6 -15 9 -5 9 8 0 22 -4 30 -9z m446 -15 c-26 -19
-42 -19 -26 0 7 8 20 15 29 15 13 -1 13 -3 -3 -15z m80 -82 c-10 -10 -19 5
-10 18 6 11 8 11 12 0 2 -7 1 -15 -2 -18z m813 -79 c2 -2 -10 -4 -27 -4 -36 0
-44 -19 -9 -21 21 -1 21 -1 -3 -9 -35 -11 -52 -12 -46 -1 4 5 0 11 -6 14 -10
3 -10 7 1 21 10 12 23 15 50 10 20 -4 38 -8 40 -10z m80 -8 c-3 -3 -25 -8 -49
-10 -41 -5 -42 -5 -13 4 18 6 35 15 39 21 4 8 9 8 17 0 6 -6 9 -13 6 -15z
m-214 -6 c19 -8 19 -9 -3 -9 -13 -1 -20 -5 -17 -11 3 -5 2 -10 -4 -10 -14 0
-23 18 -16 30 7 12 13 12 40 0z m-75 -50 c0 -13 -39 -32 -53 -26 -7 2 -1 8 13
12 l25 8 -25 7 c-23 6 -23 7 8 8 17 1 32 -3 32 -9z m-230 -61 c0 -5 -4 -9 -10
-9 -5 0 -10 7 -10 16 0 8 5 12 10 9 6 -3 10 -10 10 -16z m60 11 c0 -5 -4 -10
-10 -10 -5 0 -10 5 -10 10 0 6 5 10 10 10 6 0 10 -4 10 -10z m57 4 c-3 -3 -12
-4 -19 -1 -8 3 -5 6 6 6 11 1 17 -2 13 -5z m-182 -34 c3 -6 -1 -7 -9 -4 -18 7
-21 14 -7 14 6 0 13 -4 16 -10z m-1665 -4 c0 -2 -11 -6 -25 -8 -13 -3 -22 -1
-19 3 5 9 44 13 44 5z m-238 -99 c-3 -30 -9 -36 -34 -41 -45 -9 -59 -7 -57 7
4 30 -2 46 -18 50 -12 3 -9 5 7 5 14 1 41 5 60 10 19 5 38 8 41 6 3 -2 3 -18
1 -37z m3298 19 c0 -3 -4 -8 -10 -11 -5 -3 -10 -1 -10 4 0 6 5 11 10 11 6 0
10 -2 10 -4z m450 -106 c0 -5 -4 -10 -9 -10 -6 0 -13 5 -16 10 -3 6 1 10 9 10
9 0 16 -4 16 -10z m119 -1134 c33 -35 27 -97 -11 -110 -18 -6 -38 -6 -55 0
-40 13 -44 69 -9 107 31 33 46 34 75 3z"/>
<path d="M4960 5624 c0 -8 5 -12 10 -9 6 4 8 11 5 16 -9 14 -15 11 -15 -7z"/>
<path d="M2880 5290 c0 -14 7 -20 21 -20 15 0 19 4 15 16 -3 9 -6 18 -6 20 0
2 -7 4 -15 4 -8 0 -15 -9 -15 -20z"/>
<path d="M2196 5252 c-8 -14 3 -42 18 -43 6 0 23 -3 37 -5 20 -3 28 1 37 21
11 24 10 25 -22 25 -19 0 -41 3 -49 6 -8 3 -18 1 -21 -4z"/>
<path d="M2417 5076 c-4 -15 -6 -31 -2 -34 10 -10 16 6 13 35 l-3 28 -8 -29z"/>
<path d="M2746 5084 c-5 -12 -16 -15 -46 -12 -27 2 -40 0 -40 -9 0 -6 -10 -15
-22 -19 -27 -8 -38 -22 -38 -50 0 -13 -15 -32 -40 -49 -22 -15 -40 -34 -40
-41 0 -8 -7 -14 -15 -14 -21 0 -19 -30 3 -30 9 -1 52 -2 94 -3 72 -2 77 -1 83
21 3 12 10 22 15 22 6 0 10 11 10 25 0 14 5 25 10 25 16 0 12 -25 -14 -71 -17
-32 -22 -54 -19 -81 6 -42 9 -44 36 -24 14 11 16 19 9 33 -5 10 -6 27 -1 38 8
19 8 19 15 -3 7 -25 26 -25 30 0 1 9 12 27 23 40 16 16 20 30 16 50 -6 24 -4
28 17 28 28 0 57 31 55 59 -1 14 -5 17 -11 11 -6 -6 -14 -10 -20 -10 -6 0 -5
5 2 12 23 23 13 35 -29 34 -28 0 -45 5 -54 17 -15 21 -21 21 -29 1z m-80 -170
c-3 -8 -10 -14 -15 -14 -6 0 -8 7 -4 16 4 12 2 15 -8 12 -8 -3 -13 -11 -11
-17 2 -13 -25 -27 -35 -18 -10 11 21 66 44 78 13 7 24 17 25 23 1 6 3 -6 5
-28 3 -21 2 -44 -1 -52z"/>
<path d="M2306 4963 c-4 -9 -2 -21 4 -27 7 -7 10 -2 10 17 0 31 -5 34 -14 10z"/>
<path d="M2300 4770 c0 -11 6 -20 14 -20 9 0 12 7 9 20 -3 11 -9 20 -14 20 -5
0 -9 -9 -9 -20z"/>
<path d="M2455 4760 c3 -5 13 -10 21 -10 8 0 12 5 9 10 -3 6 -13 10 -21 10 -8
0 -12 -4 -9 -10z"/>
<path d="M2820 4760 c0 -5 5 -10 10 -10 6 0 10 5 10 10 0 6 -4 10 -10 10 -5 0
-10 -4 -10 -10z"/>
<path d="M2548 4583 c7 -3 16 -2 19 1 4 3 -2 6 -13 5 -11 0 -14 -3 -6 -6z"/>
<path d="M2058 4433 c7 -3 16 -2 19 1 4 3 -2 6 -13 5 -11 0 -14 -3 -6 -6z"/>
<path d="M2500 4300 c0 -5 5 -10 11 -10 5 0 7 5 4 10 -3 6 -8 10 -11 10 -2 0
-4 -4 -4 -10z"/>
<path d="M2240 4160 c-13 -9 -13 -11 0 -19 8 -5 18 -8 22 -5 4 3 17 0 28 -6
17 -9 20 -8 20 8 0 12 -9 22 -22 26 -30 8 -30 7 -48 -4z"/>
<path d="M2380 4159 c0 -5 5 -7 10 -4 6 3 10 8 10 11 0 2 -4 4 -10 4 -5 0 -10
-5 -10 -11z"/>
<path d="M2120 3911 c0 -6 4 -13 10 -16 6 -3 7 1 4 9 -7 18 -14 21 -14 7z"/>
<path d="M2462 3868 c7 -20 48 -23 48 -4 0 11 -9 16 -26 16 -16 0 -24 -5 -22
-12z"/>
<path d="M2402 3719 c-17 -27 -15 -38 8 -32 11 3 20 14 20 24 0 26 -14 31 -28
8z"/>
<path d="M2727 3726 c-5 -14 10 -36 25 -36 13 0 9 27 -6 39 -10 9 -15 8 -19
-3z"/>
<path d="M2440 3550 c0 -5 5 -10 10 -10 6 0 10 5 10 10 0 6 -4 10 -10 10 -5 0
-10 -4 -10 -10z"/>
<path d="M2476 3495 c18 -28 34 -33 34 -10 0 8 -7 15 -15 15 -8 0 -15 5 -15
10 0 6 -5 10 -10 10 -6 0 -3 -11 6 -25z"/>
<path d="M2700 3420 c0 -5 5 -10 10 -10 6 0 10 5 10 10 0 6 -4 10 -10 10 -5 0
-10 -4 -10 -10z"/>
<path d="M2667 3353 c-4 -6 -4 -18 -1 -27 3 -9 2 -22 -4 -29 -16 -21 -23 -67
-12 -87 9 -16 8 -22 -5 -26 -39 -15 5 -39 51 -28 25 6 26 8 9 14 -17 6 -21 19
-25 101 -3 52 -8 89 -13 82z"/>
<path d="M2240 3320 c0 -5 5 -10 10 -10 6 0 10 5 10 10 0 6 -4 10 -10 10 -5 0
-10 -4 -10 -10z"/>
<path d="M2465 3290 c4 -6 11 -8 16 -5 14 9 11 15 -7 15 -8 0 -12 -5 -9 -10z"/>
<path d="M1998 4963 c7 -3 16 -2 19 1 4 3 -2 6 -13 5 -11 0 -14 -3 -6 -6z"/>
<path d="M400 3595 c0 -8 4 -15 10 -15 5 0 7 7 4 15 -4 8 -8 15 -10 15 -2 0
-4 -7 -4 -15z"/>
<path d="M4159 1326 c-7 -14 -9 -36 -5 -51 6 -22 11 -26 38 -23 24 2 34 9 41
31 18 54 -51 93 -74 43z"/>
<path d="M1540 6971 c0 -20 7 -35 20 -43 22 -14 28 -42 8 -35 -7 2 -21 0 -31
-5 -14 -7 -16 -13 -7 -23 9 -10 8 -20 -1 -37 -7 -13 -11 -23 -10 -23 1 0 -1
-8 -5 -19 -4 -11 0 -32 11 -52 17 -32 17 -35 2 -52 -10 -11 -17 -35 -17 -60 0
-25 -6 -44 -14 -49 -17 -9 -66 -79 -66 -93 0 -6 11 -10 25 -10 18 0 25 5 23
15 -2 9 8 21 22 28 16 8 25 21 25 37 0 18 5 24 18 22 10 -2 17 3 17 13 0 9 7
18 15 21 18 7 16 67 -3 74 -10 4 -8 13 9 33 21 28 21 28 1 34 -20 5 -39 49
-27 61 3 3 8 -4 12 -16 13 -52 43 -11 43 60 0 40 4 59 15 65 8 5 16 24 17 43
l3 35 -52 3 c-53 3 -53 3 -53 -27z"/>
<path d="M7540 6962 c0 -36 1 -38 33 -37 17 1 57 3 89 3 51 2 56 4 51 22 -5
18 -1 20 28 16 19 -3 38 -5 43 -5 4 -1 5 -12 2 -26 -10 -39 3 -75 27 -75 38 0
6 -14 -38 -17 -24 -2 -67 -9 -95 -16 -50 -13 -50 -14 -26 -25 15 -6 26 -8 26
-3 0 16 79 24 96 10 11 -9 18 -9 26 -1 23 23 38 13 38 -23 0 -19 -4 -35 -10
-35 -5 0 -10 -7 -10 -15 0 -10 10 -15 30 -15 26 0 30 -3 30 -29 0 -22 -6 -31
-30 -41 -16 -7 -30 -20 -30 -29 0 -17 19 -52 20 -36 0 6 4 4 8 -3 12 -18 40
-4 44 21 2 12 9 21 16 20 6 -2 12 2 12 8 0 7 11 9 28 6 24 -5 28 -2 30 19 1
15 -3 24 -13 24 -8 0 -15 -6 -15 -12 0 -7 -11 1 -24 17 -23 29 -34 74 -39 160
-2 35 -5 40 -26 40 -16 0 -30 10 -41 30 -19 33 -17 47 5 38 10 -3 15 1 16 13
0 11 8 0 17 -23 18 -48 29 -54 34 -21 2 12 14 28 28 35 14 7 21 13 16 13 -6 0
-1 7 10 15 17 13 13 14 -53 15 -60 0 -72 -3 -76 -17 -4 -16 -5 -16 -6 -1 -1
14 -18 16 -136 17 l-135 1 0 -38z"/>
<path d="M7670 6876 c0 -8 4 -17 9 -20 10 -7 23 19 14 28 -11 11 -23 6 -23 -8z"/>
<path d="M7534 6812 c5 -8 76 -4 76 4 0 2 -18 4 -41 4 -22 0 -38 -4 -35 -8z"/>
<path d="M7914 6807 c-8 -21 2 -35 16 -21 5 5 6 15 0 24 -8 12 -10 12 -16 -3z"/>
<path d="M7958 6773 c7 -3 16 -2 19 1 4 3 -2 6 -13 5 -11 0 -14 -3 -6 -6z"/>
<path d="M7744 6739 c-3 -6 -2 -14 3 -18 6 -3 13 -13 16 -21 4 -12 6 -11 6 3
1 9 6 17 11 17 6 0 10 7 10 15 0 17 -35 20 -46 4z"/>
<path d="M7526 6654 c-9 -24 9 -33 49 -23 22 5 57 11 79 15 21 3 36 8 33 11
-11 10 -157 8 -161 -3z"/>
<path d="M7862 6514 c2 -22 9 -30 28 -32 22 -2 23 -1 8 8 -10 6 -18 17 -18 25
0 8 -5 17 -11 20 -7 5 -9 -3 -7 -21z"/>
<path d="M7755 6470 c-4 -6 3 -10 14 -10 25 0 27 6 6 13 -8 4 -17 2 -20 -3z"/>
<path d="M7632 6448 c-13 -13 -17 -48 -6 -48 10 0 33 33 34 48 0 15 -12 16
-28 0z"/>
<path d="M7700 6410 c0 -13 11 -13 30 0 12 8 11 10 -7 10 -13 0 -23 -4 -23
-10z"/>
<path d="M7952 6401 c2 -7 7 -12 11 -12 12 1 9 15 -3 20 -7 2 -11 -2 -8 -8z"/>
<path d="M7805 6341 l-80 -6 94 -7 c145 -12 181 -11 181 7 0 16 -33 17 -195 6z"/>
<path d="M7548 6113 c7 -3 16 -2 19 1 4 3 -2 6 -13 5 -11 0 -14 -3 -6 -6z"/>
<path d="M7566 6092 c-18 -21 -16 -52 4 -52 14 0 22 23 18 50 l-3 22 -19 -20z"/>
<path d="M7953 6063 c-7 -2 -13 -18 -13 -34 0 -21 -4 -27 -15 -23 -8 4 -15 2
-15 -4 0 -6 6 -13 13 -15 7 -3 4 -6 -6 -6 -11 -1 -22 -13 -28 -31 -6 -16 -16
-30 -22 -30 -7 -1 -23 -14 -37 -30 -13 -17 -33 -30 -44 -30 -20 0 -20 0 0 14
17 13 15 14 -26 11 -25 -2 -45 -4 -45 -5 0 -1 -22 -4 -50 -6 -30 -3 -53 -10
-58 -20 -6 -11 -12 -12 -22 -4 -10 8 -16 6 -27 -8 -7 -11 -24 -23 -38 -27
l-25 -7 28 29 c21 23 27 36 22 55 -4 14 -13 25 -20 25 -23 0 -35 -48 -33 -135
0 -45 -2 -85 -5 -89 -10 -9 -9 -45 1 -39 4 2 14 1 22 -4 13 -8 12 -12 -5 -24
-16 -12 -18 -17 -7 -27 9 -10 12 -10 12 -1 0 7 7 12 15 12 8 0 15 -7 15 -15 0
-8 -5 -15 -11 -15 -6 0 -4 -7 5 -15 12 -13 22 -13 66 -2 28 7 48 16 44 20 -4
3 5 12 19 18 21 10 33 9 63 -6 28 -13 42 -15 54 -7 12 7 21 7 28 0 5 -5 41
-11 80 -12 48 -1 74 -7 85 -18 15 -14 -3 -16 -201 -23 -271 -9 -352 -21 -167
-26 72 -1 139 -2 150 -1 11 0 38 -4 61 -9 30 -8 52 -7 85 2 24 7 56 12 72 10
l27 -2 0 250 c0 190 -3 251 -12 254 -10 4 -10 6 0 6 6 1 12 12 12 26 0 25 -16
31 -47 18z m-321 -255 c16 12 60 11 91 -2 21 -10 22 -63 2 -91 -14 -17 -20
-18 -58 -8 -25 7 -43 8 -45 2 -2 -5 -13 -9 -25 -8 -21 0 -21 1 -2 9 19 8 19 9
-2 9 -24 1 -31 15 -13 26 6 3 10 25 10 48 0 37 1 39 14 22 11 -16 17 -17 28
-7z m158 -108 c0 -5 -7 -10 -15 -10 -8 0 -15 5 -15 10 0 6 7 10 15 10 8 0 15
-4 15 -10z m-211 -53 c-13 -13 -49 -18 -49 -6 0 9 19 17 43 18 14 1 15 -2 6
-12z m51 -27 c0 -5 -4 -10 -10 -10 -5 0 -10 5 -10 10 0 6 5 10 10 10 6 0 10
-4 10 -10z m-44 -26 c-11 -8 -25 -14 -30 -13 -6 0 -5 3 2 6 6 2 10 8 8 12 -3
4 5 8 17 8 21 2 22 1 3 -13z"/>
<path d="M7620 6025 c0 -8 7 -15 16 -15 14 0 14 3 4 15 -7 8 -14 15 -16 15 -2
0 -4 -7 -4 -15z"/>
<path d="M7856 6025 c4 -8 8 -15 10 -15 2 0 4 7 4 15 0 8 -4 15 -10 15 -5 0
-7 -7 -4 -15z"/>
<path d="M7507 5974 c-4 -4 -7 -14 -7 -23 0 -11 3 -12 11 -4 6 6 10 16 7 23
-2 6 -7 8 -11 4z"/>
<path d="M7554 5969 c-3 -6 -1 -16 5 -22 8 -8 11 -5 11 11 0 24 -5 28 -16 11z"/>
<path d="M1235 5663 c-66 -5 -87 -12 -60 -23 31 -11 208 3 213 18 4 12 -31 13
-153 5z"/>
<path d="M720 5630 c0 -5 7 -10 15 -10 8 0 15 5 15 10 0 6 -7 10 -15 10 -8 0
-15 -4 -15 -10z"/>
<path d="M848 5633 c6 -2 18 -2 25 0 6 3 1 5 -13 5 -14 0 -19 -2 -12 -5z"/>
<path d="M1293 5555 c-3 -9 -3 -18 0 -21 9 -9 27 6 27 22 0 19 -19 18 -27 -1z"/>
<path d="M1358 5550 c-14 -16 -15 -19 -1 -24 26 -10 33 -7 33 19 0 29 -8 30
-32 5z"/>
<path d="M1811 5510 c0 -29 1 -32 10 -17 7 11 7 23 0 35 -9 14 -10 11 -10 -18z"/>
<path d="M1320 5452 c0 -5 16 -8 35 -9 19 -1 35 2 35 6 0 4 -16 8 -35 9 -19 1
-35 -2 -35 -6z"/>
<path d="M1818 5448 c9 -9 15 -9 24 0 9 9 7 12 -12 12 -19 0 -21 -3 -12 -12z"/>
<path d="M7470 5425 c0 -41 16 -46 30 -9 14 36 13 44 -10 44 -16 0 -20 -7 -20
-35z"/>
<path d="M7603 5453 c9 -2 23 -2 30 0 6 3 -1 5 -18 5 -16 0 -22 -2 -12 -5z"/>
<path d="M7595 5400 c-44 -4 -60 -9 -60 -20 0 -17 62 -22 82 -7 7 5 27 7 43 5
17 -3 33 -1 36 4 3 4 14 8 25 8 11 0 18 4 15 9 -6 9 -45 9 -141 1z"/>
<path d="M7788 5380 c13 -6 31 -6 45 0 18 7 14 9 -23 9 -37 0 -41 -2 -22 -9z"/>
<path d="M7960 5340 c-1 -27 -26 -68 -38 -60 -4 3 -7 -11 -8 -31 -1 -20 -5
-42 -10 -50 -6 -10 -2 -10 16 2 19 12 26 27 28 58 4 52 19 53 24 1 2 -28 0
-40 -9 -40 -16 0 -17 -32 -2 -47 8 -8 9 -21 3 -40 -5 -15 -6 -55 -3 -88 l6
-60 1 52 c1 28 7 64 12 79 15 40 24 244 11 244 -6 0 -11 -6 -11 -12 0 -9 -4
-8 -10 2 -8 12 -10 10 -10 -10z"/>
<path d="M7895 5340 c-3 -5 -1 -10 4 -10 6 0 11 5 11 10 0 6 -2 10 -4 10 -3 0
-8 -4 -11 -10z"/>
<path d="M7480 5106 c0 -11 9 -16 28 -16 15 -1 98 -2 185 -4 88 -2 157 0 157
5 0 5 -64 10 -142 10 -157 2 -172 3 -205 13 -17 6 -23 3 -23 -8z"/>
<path d="M7879 5091 c9 -6 14 -30 15 -68 1 -32 6 -61 11 -65 15 -11 45 -9 45
3 0 5 -4 8 -9 5 -12 -8 -33 64 -29 99 3 26 -1 30 -22 33 -18 2 -21 0 -11 -7z"/>
<path d="M7456 4932 c-3 -6 1 -13 10 -16 25 -9 64 -7 64 4 0 6 -9 10 -19 10
-11 0 -26 3 -34 6 -8 3 -18 1 -21 -4z"/>
<path d="M7770 4931 c26 -4 36 -12 40 -31 l6 -25 6 27 c7 35 3 38 -46 37 l-41
-2 35 -6z"/>
<path d="M7956 4798 c-3 -18 -7 -58 -10 -88 -2 -30 -5 -59 -6 -65 -1 -5 -2
-38 -1 -73 2 -102 17 -62 19 50 1 57 5 127 8 156 7 56 -2 73 -10 20z"/>
<path d="M7543 4813 c26 -2 45 -8 42 -13 -3 -4 4 -6 15 -3 46 12 27 23 -37 21
-56 -1 -60 -2 -20 -5z"/>
<path d="M7431 4794 c0 -11 3 -14 6 -6 3 7 2 16 -1 19 -3 4 -6 -2 -5 -13z"/>
<path d="M3184 4722 c-6 -4 -14 -19 -17 -34 -6 -22 -4 -25 13 -21 14 4 18 13
17 34 -1 16 -2 29 -2 29 0 0 -5 -4 -11 -8z"/>
<path d="M7636 4665 c-17 -18 -31 -25 -44 -21 -16 5 -22 -2 -36 -47 -20 -63
-47 -84 -89 -68 -24 9 -27 8 -27 -9 0 -11 -9 -24 -20 -30 -25 -13 -26 -40 -2
-40 9 0 37 5 61 11 24 5 45 8 47 6 2 -2 8 -24 12 -48 8 -41 6 -48 -19 -78 -18
-22 -33 -32 -43 -28 -21 8 -30 -10 -11 -20 13 -8 8 -24 -35 -109 l-50 -99 -20
-280 c-37 -527 -39 -570 -45 -760 -3 -104 -10 -246 -15 -315 -5 -69 -19 -262
-30 -430 -19 -280 -34 -484 -75 -988 -8 -101 -15 -212 -15 -248 l0 -64 410 0
410 0 0 1739 0 1740 -30 -1 c-17 -1 -33 -5 -36 -9 -7 -12 -274 -9 -274 3 0 5
-10 2 -22 -6 -29 -20 -61 -22 -34 -3 14 10 17 22 14 48 -4 24 0 37 11 46 10 8
12 12 4 13 -21 0 -15 20 17 52 17 16 30 36 30 43 0 26 -20 26 -44 0z m-86
-176 c0 -11 -4 -17 -10 -14 -5 3 -10 15 -10 26 0 11 5 17 10 14 6 -3 10 -15
10 -26z"/>
<path d="M4550 4671 c-8 -5 -64 -14 -123 -21 -88 -11 -112 -17 -129 -35 -12
-12 -22 -31 -23 -41 -2 -11 -6 -28 -10 -38 -7 -16 -5 -18 8 -13 9 3 19 2 22
-2 3 -5 30 -3 61 5 30 8 64 12 75 9 11 -4 26 -2 32 4 7 5 28 9 47 9 19 0 60 7
90 15 62 19 161 22 176 7 6 -6 34 -19 62 -29 48 -18 52 -18 52 -2 0 17 -31 53
-94 109 -35 30 -64 43 -51 22 3 -5 1 -10 -6 -10 -8 0 -8 -4 1 -15 11 -13 8
-14 -21 -9 -26 4 -30 3 -19 -5 13 -9 13 -11 -2 -11 -9 0 -24 7 -32 16 -9 8
-28 19 -43 24 -16 4 -35 11 -43 14 -8 3 -22 2 -30 -3z"/>
<path d="M7411 4551 c-1 -32 2 -42 10 -34 7 7 7 21 1 44 l-10 34 -1 -44z"/>
<path d="M4385 4465 c-16 -7 -35 -11 -41 -8 -7 2 -15 -5 -19 -16 -3 -11 -15
-23 -26 -26 -20 -7 -20 -7 -2 -25 10 -9 21 -16 25 -13 4 2 5 -10 2 -27 -6 -30
-5 -31 27 -30 19 0 67 0 108 0 41 0 80 5 86 10 13 11 124 10 130 0 2 -3 33 -7
70 -8 64 -3 66 -3 56 17 -6 11 -16 23 -23 27 -8 5 -6 9 6 14 16 5 14 10 -14
37 -38 37 -72 45 -210 45 -55 1 -100 5 -100 10 0 12 -40 8 -75 -7z m291 -25
c15 -6 25 -13 22 -15 -3 -3 -20 1 -39 9 -38 17 -25 21 17 6z m-216 -60 c0 -5
-4 -10 -10 -10 -5 0 -10 5 -10 10 0 6 5 10 10 10 6 0 10 -4 10 -10z"/>
<path d="M7412 4395 c-7 -8 -15 -28 -18 -45 -6 -27 -4 -30 19 -30 14 0 29 5
32 10 3 6 0 10 -8 10 -8 0 -17 9 -20 20 -4 16 0 20 20 20 15 0 23 5 21 13 -7
18 -31 19 -46 2z"/>
<path d="M7483 4383 c9 -2 23 -2 30 0 6 3 -1 5 -18 5 -16 0 -22 -2 -12 -5z"/>
<path d="M7390 4295 c0 -8 2 -15 4 -15 2 0 6 7 10 15 3 8 1 15 -4 15 -6 0 -10
-7 -10 -15z"/>
<path d="M4360 4292 c0 -4 14 -16 30 -26 21 -12 58 -18 123 -21 74 -3 82 -2
42 4 -27 5 -72 18 -98 30 -49 21 -97 28 -97 13z"/>
<path d="M7390 4258 c0 -11 28 -10 35 1 3 6 -4 9 -15 8 -11 -1 -20 -5 -20 -9z"/>
<path d="M3895 3894 c-15 -13 -34 -24 -40 -24 -22 0 -65 -27 -57 -36 4 -4 -1
-2 -11 6 -18 14 -18 14 0 21 14 5 12 7 -12 11 -17 3 -37 7 -45 9 -24 6 -15
-48 15 -87 14 -19 38 -36 53 -40 15 -3 36 -10 47 -15 25 -12 155 -18 161 -7 3
4 18 8 35 8 18 0 29 5 29 14 0 8 6 17 13 19 7 4 6 6 -4 6 -17 1 -129 106 -129
121 0 19 -29 16 -55 -6z"/>
<path d="M4223 3845 l-28 -24 31 -1 c17 0 53 -3 80 -6 l49 -6 -33 31 c-39 37
-62 39 -99 6z"/>
<path d="M3140 3850 c0 -5 5 -10 11 -10 5 0 7 5 4 10 -3 6 -8 10 -11 10 -2 0
-4 -4 -4 -10z"/>
<path d="M4640 3770 c0 -5 5 -10 11 -10 5 0 7 5 4 10 -3 6 -8 10 -11 10 -2 0
-4 -4 -4 -10z"/>
<path d="M4666 3742 c-8 -14 31 -113 54 -134 19 -18 21 -28 16 -64 -3 -26 -2
-44 4 -44 6 0 10 7 10 16 0 8 7 22 15 30 8 9 15 32 15 53 0 29 -8 46 -40 81
-22 24 -40 47 -40 51 0 10 -29 19 -34 11z"/>
<path d="M3927 3693 c-11 -10 -8 -20 8 -27 10 -4 15 1 15 14 0 20 -11 26 -23
13z"/>
<path d="M3412 3617 c-17 -18 -22 -35 -22 -78 1 -49 2 -52 13 -31 7 12 16 19
20 16 4 -4 7 -2 7 4 0 17 14 15 36 -5 11 -10 18 -28 16 -40 -2 -17 3 -23 27
-28 17 -4 31 -12 31 -19 0 -7 15 -21 34 -31 24 -13 41 -35 61 -79 15 -34 42
-75 60 -93 28 -27 30 -32 14 -36 -10 -3 -28 4 -41 15 -12 10 -24 15 -26 9 -4
-13 16 -51 28 -51 6 0 10 -7 10 -15 0 -8 4 -14 9 -13 5 2 16 -5 23 -16 9 -11
32 -20 62 -23 33 -4 44 -9 37 -16 -18 -18 -12 -29 12 -21 35 11 53 54 22 54
-8 0 -15 5 -15 11 0 6 6 9 14 6 52 -20 188 -27 194 -9 2 7 -7 12 -25 12 -31 0
-55 12 -54 26 1 5 -11 12 -27 16 -15 4 -37 15 -48 25 -11 10 -29 23 -40 29
-11 6 -21 26 -24 45 -4 28 -10 35 -35 41 -16 4 4 5 45 2 91 -6 224 -6 265 1
17 3 65 5 109 6 53 0 75 4 68 11 -5 5 -53 9 -108 9 -245 -3 -268 -1 -295 26
-16 16 -20 28 -15 47 7 28 20 32 60 16 28 -10 126 -2 126 11 0 5 -13 9 -30 9
-21 0 -30 5 -30 16 0 13 -8 15 -35 12 -22 -2 -34 0 -32 6 2 6 20 10 41 10 42
-1 46 7 12 26 -18 9 -43 10 -93 5 -170 -19 -203 -16 -203 16 0 11 -7 22 -15
25 -14 6 -13 8 2 19 15 11 8 12 -45 10 -57 -2 -62 -1 -62 19 -1 20 -2 19 -21
-6 -18 -24 -23 -26 -47 -16 -15 7 -32 18 -38 25 -9 10 -15 8 -32 -10z m428
-180 c0 -18 -38 -57 -56 -57 -8 0 -18 10 -23 23 -7 17 -4 25 13 34 28 16 66
16 66 0z"/>
<path d="M4472 3528 c-39 -8 -43 -12 -37 -31 4 -12 9 -37 12 -54 5 -33 18 -43
25 -22 2 7 16 13 30 13 34 2 108 61 108 86 0 17 -7 20 -47 19 -27 -1 -68 -6
-91 -11z"/>
<path d="M4054 3448 c-3 -4 6 -8 20 -8 14 0 26 4 26 9 0 11 -39 10 -46 -1z"/>
<path d="M3307 3430 c3 -11 7 -20 9 -20 2 0 4 9 4 20 0 11 -4 20 -9 20 -5 0
-7 -9 -4 -20z"/>
<path d="M4305 3360 c3 -5 8 -10 11 -10 2 0 4 5 4 10 0 6 -5 10 -11 10 -5 0
-7 -4 -4 -10z"/>
<path d="M4436 2791 c-8 -13 4 -42 15 -35 12 7 12 44 0 44 -6 0 -12 -4 -15 -9z"/>
<path d="M435 2590 c-3 -5 -1 -10 4 -10 6 0 11 5 11 10 0 6 -2 10 -4 10 -3 0
-8 -4 -11 -10z"/>
<path d="M485 2479 c-4 -6 -5 -12 -2 -15 2 -3 7 2 10 11 7 17 1 20 -8 4z"/>
<path d="M545 2360 c-3 -5 -1 -10 4 -10 6 0 11 5 11 10 0 6 -2 10 -4 10 -3 0
-8 -4 -11 -10z"/>
<path d="M500 2305 c0 -8 5 -15 10 -15 6 0 10 7 10 15 0 8 -4 15 -10 15 -5 0
-10 -7 -10 -15z"/>
<path d="M280 2206 c0 -9 5 -16 10 -16 6 0 10 4 10 9 0 6 -4 13 -10 16 -5 3
-10 -1 -10 -9z"/>
<path d="M73 2075 c-21 -24 -15 -35 20 -35 28 1 30 2 15 14 -13 10 -15 15 -6
24 9 9 9 12 -2 12 -8 -1 -21 -7 -27 -15z"/>
<path d="M0 2030 c0 -32 0 -33 20 -15 11 10 19 19 18 19 -2 1 -11 8 -20 15
-16 12 -18 10 -18 -19z"/>
</g>
</svg>
